<svg width="98" height="80" viewBox="0 0 98 80" fill="none" xmlns="http://www.w3.org/2000/svg">
  <!-- Écran -->
  <rect x="10" y="15" width="50" height="35" rx="2" stroke="black" stroke-width="2.4" fill="none"/>
  <!-- Support écran -->
  <rect x="30" y="50" width="10" height="5" fill="black"/>
  <rect x="25" y="55" width="20" height="4" rx="1" fill="black"/>

  <!-- Unité centrale -->
  <rect x="65" y="20" width="20" height="40" rx="2" stroke="black" stroke-width="2.4" fill="none"/>
  <circle cx="75" cy="26" r="2" fill="black"/>
  <rect x="70" y="32" width="10" height="2" fill="black"/>
  <rect x="70" y="37" width="10" height="2" fill="black"/>
  <rect x="70" y="42" width="10" height="2" fill="black"/>

  <!-- Grand engrenage -->
  <g transform="translate(28, 30)">
    <circle r="6" stroke="black" stroke-width="1.0" fill="none"/>
    <circle r="2" fill="black"/>
    <g stroke="black" stroke-width="2">
      <line x1="-6" y1="0" x2="-8" y2="0"/>
      <line x1="6" y1="0" x2="8" y2="0"/>
      <line x1="0" y1="-6" x2="0" y2="-8"/>
      <line x1="0" y1="6" x2="0" y2="8"/>
      <line x1="-4.2" y1="-4.2" x2="-5.6" y2="-5.6"/>
      <line x1="4.2" y1="-4.2" x2="5.6" y2="-5.6"/>
      <line x1="-4.2" y1="4.2" x2="-5.6" y2="5.6"/>
      <line x1="4.2" y1="4.2" x2="5.6" y2="5.6"/>
    </g>
  </g>

  <!-- Petit engrenage -->
  <g transform="translate(40, 26)">
    <circle r="4" stroke="black" stroke-width="1.0" fill="none"/>
    <circle r="1.3" fill="black"/>
    <g stroke="black" stroke-width="2">
      <line x1="-4" y1="0" x2="-5.2" y2="0"/>
      <line x1="4" y1="0" x2="5.2" y2="0"/>
      <line x1="0" y1="-4" x2="0" y2="-5.2"/>
      <line x1="0" y1="4" x2="0" y2="5.2"/>
      <line x1="-3" y1="-3" x2="-4" y2="-4"/>
      <line x1="3" y1="-3" x2="4" y2="-4"/>
      <line x1="-3" y1="3" x2="-4" y2="4"/>
      <line x1="3" y1="3" x2="4" y2="4"/>
    </g>
  </g>

  <!-- Tournevis sans pointe -->
  <g transform="rotate(45 43 36)">
    <rect x="42" y="28" width="2" height="8" rx="0.5" fill="black" stroke="black" stroke-width="0.5"/>
    <rect x="42.75" y="20" width="0.5" height="8" fill="black"/>
  </g>

  <!-- Clé plate -->
  <g transform="translate(28,36) scale(0.025)">
    <path fill="black" d="M352 320c88.4 0 160-71.6 160-160c0-15.3-2.2-30.1-6.2-44.2c-3.1-10.8-16.4-13.2-24.3-5.3l-76.8 76.8c-3 3-7.1 4.7-11.3 4.7L336 192c-8.8 0-16-7.2-16-16l0-57.4c0-4.2 1.7-8.3 4.7-11.3l76.8-76.8c7.9-7.9 5.4-21.2-5.3-24.3C382.1 2.2 367.3 0 352 0C263.6 0 192 71.6 192 160c0 19.1 3.4 37.5 9.5 54.5L19.9 396.1C7.2 408.8 0 426.1 0 444.1C0 481.6 30.4 512 67.9 512c18 0 35.3-7.2 48-19.9L297.5 310.5c17 6.2 35.4 9.5 54.5 9.5zM80 408a24 24 0 1 1 0 48 24 24 0 1 1 0-48z"/>
  </g>
</svg>